<svg width="20" height="20" viewBox="0 0 20 20" fill="none" xmlns="http://www.w3.org/2000/svg">
<path d="M10.0325 1.68164C5.55219 1.68164 1.92407 5.31787 1.92407 9.79823C1.92407 14.2786 5.55219 17.9148 10.0325 17.9148C14.521 17.9148 18.1573 14.2786 18.1573 9.79823C18.1573 5.31787 14.521 1.68164 10.0325 1.68164ZM15.6573 6.5516H13.263C13.0032 5.53702 12.6299 4.56303 12.1429 3.66209C13.6363 4.17343 14.8782 5.21236 15.6573 6.5516ZM10.0407 3.33743C10.7143 4.31142 11.2419 5.39092 11.5909 6.5516H8.4904C8.83941 5.39092 9.36699 4.31142 10.0407 3.33743ZM3.75842 11.4216C3.62856 10.9021 3.54739 10.3583 3.54739 9.79823C3.54739 9.23819 3.62856 8.69438 3.75842 8.17491H6.50183C6.4369 8.71061 6.3882 9.2463 6.3882 9.79823C6.3882 10.3502 6.4369 10.8859 6.50183 11.4216H3.75842ZM4.42398 13.0449H6.81838C7.07811 14.0594 7.45147 15.0334 7.93847 15.9344C6.44501 15.423 5.20318 14.3922 4.42398 13.0449ZM6.81838 6.5516H4.42398C5.20318 5.20424 6.44501 4.17343 7.93847 3.66209C7.45147 4.56303 7.07811 5.53702 6.81838 6.5516ZM10.0407 16.259C9.36699 15.285 8.83941 14.2055 8.4904 13.0449H11.5909C11.2419 14.2055 10.7143 15.285 10.0407 16.259ZM11.9399 11.4216H8.14138C8.06833 10.8859 8.01152 10.3502 8.01152 9.79823C8.01152 9.2463 8.06833 8.70249 8.14138 8.17491H11.9399C12.013 8.70249 12.0698 9.2463 12.0698 9.79823C12.0698 10.3502 12.013 10.8859 11.9399 11.4216ZM12.1429 15.9344C12.6299 15.0334 13.0032 14.0594 13.263 13.0449H15.6573C14.8782 14.3841 13.6363 15.423 12.1429 15.9344ZM13.5795 11.4216C13.6444 10.8859 13.6931 10.3502 13.6931 9.79823C13.6931 9.2463 13.6444 8.71061 13.5795 8.17491H16.3229C16.4528 8.69438 16.5339 9.23819 16.5339 9.79823C16.5339 10.3583 16.4528 10.9021 16.3229 11.4216H13.5795Z" fill="white"/>
</svg>
