<svg width="20" height="21" viewBox="0 0 20 21" fill="none" xmlns="http://www.w3.org/2000/svg">
<path d="M5.57932 9.44392C6.74811 11.7409 8.63116 13.6158 10.9282 14.7928L12.7138 13.0071C12.933 12.788 13.2576 12.7149 13.5417 12.8123C14.4508 13.1126 15.4329 13.2749 16.4393 13.2749C16.8857 13.2749 17.251 13.6402 17.251 14.0866V16.9193C17.251 17.3657 16.8857 17.731 16.4393 17.731C8.81784 17.731 2.64111 11.5542 2.64111 3.93275C2.64111 3.48634 3.00636 3.12109 3.45277 3.12109H6.29358C6.73999 3.12109 7.10524 3.48634 7.10524 3.93275C7.10524 4.94733 7.26757 5.92132 7.56788 6.83038C7.65717 7.11446 7.59223 7.431 7.36497 7.65827L5.57932 9.44392Z" fill="white"/>
</svg>
